 <svg version="1.0" xmlns="http://www.w3.org/2000/svg" width="700.000000pt" height="155.000000pt" viewBox="0 0 700.000000 155.000000" preserveAspectRatio="xMidYMid meet">
<metadata>
Created by potrace 1.12, written by Peter Selinger 2001-2015
</metadata>
<g transform="translate(0.000000,155.000000) scale(0.100000,-0.100000)" fill="#000000" stroke="none">
<path d="M1375 1540 c-154 -4 -174 -7 -209 -28 -57 -34 -155 -121 -162 -146 -9 -31 -33 -54 -91 -92 -61 -39 -70 -72 -28 -100 23 -15 23 -17 9 -39 -11 -16 -13 -34 -9 -59 6 -30 4 -37 -11 -42 -24 -7 -35 -13 -83 -47 -34 -25 -54 -30 -133 -37 -76 -6 -97 -5 -116 8 -37 24 -204 29 -278 7 -32 -9 -65 -22 -71 -27 -17 -14 -16 -73 1 -87 7 -6 16 -27 19 -47 6 -33 2 -40 -38 -78 -24 -22 -61 -54 -82 -69 -21 -15 -50 -37 -64 -47 -23 -17 -27 -27 -27 -72 0 -29 5 -56 12 -60 6 -4 252 -8 547 -8 l536 0 41 -30 c35 -25 42 -36 42 -64 0 -35 32 -86 54 -86 7 0 21 -9 31 -20 11 -12 59 -44 108 -72 l89 -51 -7 -46 c-4 -25 -11 -52 -17 -58 -6 -7 -7 -20 -4 -29 7 -18 23 -16 146 12 36 8 88 20 115 26 28 5 73 18 100 28 28 10 68 24 90 30 71 22 97 39 93 63 -3 19 -8 21 -37 19 -19 -2 -45 2 -58 9 -19 10 -33 10 -76 -3 -28 -9 -83 -19 -122 -23 -38 -4 -80 -11 -92 -16 -37 -14 -43 18 -8 45 25 20 26 25 15 45 -8 16 -10 42 -5 76 4 36 2 55 -5 60 -22 14 -33 -15 -35 -85 -1 -60 -5 -73 -23 -86 -16 -11 -21 -21 -16 -40 7 -27 -7 -32 -26 -9 -7 8 -50 38 -95 66 -46 28 -93 61 -106 75 -12 13 -28 24 -34 24 -22 0 -45 37 -45 72 0 31 -7 42 -42 70 l-42 33 -541 5 -540 5 -3 26 c-2 21 7 33 50 66 29 22 63 46 75 52 12 6 25 20 28 31 4 11 20 27 36 36 30 15 30 16 23 77 -4 34 -13 70 -21 79 -8 9 -12 21 -9 27 22 34 259 41 306 8 19 -13 38 -16 95 -11 102 8 155 23 200 60 22 18 54 34 70 36 29 3 30 4 30 58 0 30 6 65 13 77 18 32 15 50 -10 68 -22 16 -22 17 -4 28 65 41 99 72 111 101 13 31 97 112 155 149 21 14 60 17 215 19 l190 3 0 -57 c1 -65 10 -82 31 -54 17 24 19 127 2 144 -7 7 -28 11 -47 10 -20 -1 -113 -5 -206 -8z m500 -1384 c0 -5 -13 -13 -30 -18 -16 -5 -46 -15 -65 -23 -19 -7 -62 -19 -95 -25 -33 -7 -84 -19 -113 -27 -87 -24 -114 2 -38 35 53 24 132 42 189 43 23 0 58 7 77 14 38 15 75 15 75 1z"></path>
<path d="M2785 1538 c-3 -7 -4 -355 -3 -773 3 -752 3 -760 23 -760 20 0 20 7 20 770 0 726 -1 770 -18 773 -9 2 -19 -2 -22 -10z"></path>
<path d="M1485 1338 c-3 -8 -4 -68 -3 -134 l3 -119 30 0 c30 0 30 0 33 63 2 34 6 62 11 62 4 0 26 -30 49 -66 37 -57 45 -65 70 -62 l27 3 3 128 c2 111 0 128 -14 134 -34 13 -49 -11 -48 -76 1 -34 -2 -60 -7 -59 -4 2 -27 32 -51 68 -33 50 -49 66 -71 68 -16 2 -29 -2 -32 -10z m73 -95 c-19 -23 -38 -15 -38 15 0 40 11 47 31 20 13 -16 15 -26 7 -35z m120 -77 c5 -42 -13 -53 -33 -22 -14 21 -15 29 -5 41 18 22 34 13 38 -19z"></path>
<path d="M1764 1335 c-3 -6 -3 -65 -2 -131 l3 -119 85 0 c78 0 85 2 85 20 0 17 -8 21 -50 25 -48 5 -50 6 -50 35 0 26 4 30 27 30 34 1 53 18 44 40 -4 11 -15 15 -38 13 -29 -3 -33 0 -33 22 0 23 4 25 45 25 41 0 45 2 45 25 0 25 -2 25 -79 25 -48 1 -80 -4 -82 -10z m51 -115 c0 -7 -6 -15 -12 -17 -8 -3 -13 4 -13 17 0 13 5 20 13 18 6 -3 12 -11 12 -18z"></path>
<path d="M1955 1340 c-6 -10 53 -228 68 -247 14 -19 55 -16 66 6 6 10 13 37 17 60 4 22 10 41 14 41 4 0 14 -26 22 -57 14 -57 15 -58 48 -58 l34 0 34 115 c42 144 42 144 14 148 -34 5 -47 -11 -62 -73 -7 -31 -18 -54 -24 -52 -6 2 -15 28 -21 57 -18 97 -66 92 -86 -11 -6 -32 -15 -59 -19 -59 -4 0 -13 21 -19 48 -7 26 -19 57 -27 70 -15 22 -48 30 -59 12z m180 -71 c4 -5 4 -22 0 -36 -5 -23 -8 -24 -20 -12 -9 8 -12 23 -9 37 7 24 19 29 29 11z m-61 -84 c3 -8 1 -28 -5 -43 -10 -26 -11 -26 -25 -8 -15 21 -18 48 -7 59 11 12 31 8 37 -8z m140 6 c10 -15 -13 -63 -27 -58 -17 5 -21 35 -7 52 14 17 26 19 34 6z"></path>
<path d="M1466 1012 c-3 -6 12 -39 33 -75 32 -53 41 -76 43 -123 3 -58 3 -59 33 -59 29 0 30 2 35 55 4 39 16 75 43 123 21 37 35 72 32 77 -18 29 -74 -9 -90 -61 -10 -29 -21 -23 -47 24 -17 30 -30 43 -50 45 -14 2 -29 -1 -32 -6z m119 -122 c3 -5 1 -10 -4 -10 -6 0 -11 5 -11 10 0 6 2 10 4 10 3 0 8 -4 11 -10z"></path>
<path d="M1752 1000 c-39 -24 -52 -54 -52 -120 0 -93 37 -130 129 -130 42 0 56 5 83 29 27 24 32 36 36 88 3 43 0 69 -13 92 -30 58 -121 79 -183 41z m102 -43 c26 -19 33 -99 12 -132 -20 -30 -56 -33 -81 -5 -28 31 -25 108 4 132 27 21 41 23 65 5z"></path>
<path d="M2012 1010 c-22 -9 -23 -13 -20 -132 l3 -123 30 0 c28 0 30 3 33 43 2 23 7 42 12 42 4 0 20 -20 34 -45 22 -36 32 -45 55 -45 15 0 30 3 34 6 3 3 -6 28 -21 54 -25 45 -26 49 -11 67 24 27 31 57 19 87 -17 46 -107 70 -168 46z m93 -60 c17 -19 17 -22 3 -37 -21 -21 -48 -10 -48 20 0 41 17 48 45 17z m-58 -84 c-4 -9 -11 -16 -17 -16 -11 0 -14 33 -3 44 11 10 26 -11 20 -28z"></path>
<path d="M2234 1007 c-2 -7 -3 -67 -2 -133 l3 -119 30 0 c29 0 30 2 33 53 2 28 6 52 10 52 4 -1 24 -25 45 -55 33 -48 42 -55 71 -55 18 0 35 3 39 6 3 3 -14 33 -39 66 -24 33 -44 63 -44 67 0 3 16 28 35 55 42 59 44 76 10 76 -28 0 -48 -17 -85 -73 -14 -20 -28 -37 -32 -37 -5 0 -8 19 -8 43 0 24 -5 48 -12 55 -16 16 -47 15 -54 -1z m46 -122 c0 -8 -4 -15 -10 -15 -5 0 -10 7 -10 15 0 8 5 15 10 15 6 0 10 -7 10 -15z"></path>
<path d="M3076 1011 c-6 -10 -35 -282 -39 -371 l-2 -45 45 0 45 0 9 113 c5 61 12 112 16 112 4 0 22 -42 40 -92 39 -112 58 -136 97 -123 22 9 32 25 62 112 20 57 39 103 42 103 8 0 19 -89 19 -152 0 -69 6 -78 51 -78 23 0 42 5 45 13 2 7 -4 103 -14 212 l-18 200 -48 0 -48 0 -50 -137 c-28 -76 -53 -138 -57 -138 -3 0 -28 62 -56 138 l-50 137 -42 3 c-22 2 -44 -1 -47 -7z m63 -34 c9 -12 61 -140 61 -152 0 -2 -16 -1 -36 2 -24 4 -39 2 -44 -7 -4 -7 -11 -53 -15 -102 -7 -85 -19 -116 -31 -83 -8 19 20 328 30 344 9 15 21 14 35 -2z m299 1 c5 -7 15 -74 21 -148 6 -74 14 -150 17 -167 4 -25 1 -33 -10 -33 -18 0 -22 17 -31 110 -3 36 -9 71 -13 77 -9 14 -43 20 -59 10 -19 -12 -16 14 8 80 22 60 36 83 49 83 4 0 12 -6 18 -12z m-135 -251 c13 8 1 -55 -14 -74 -18 -21 -29 -16 -45 22 -23 55 -19 65 17 55 18 -5 36 -7 42 -3z"></path>
<path d="M3567 1013 c-12 -12 -7 -50 7 -62 8 -7 27 -11 43 -9 24 3 28 8 31 41 3 37 3 37 -36 37 -21 0 -42 -3 -45 -7z"></path>
<path d="M3937 1014 c-12 -12 -8 -51 7 -63 8 -7 27 -11 43 -9 25 3 28 7 28 38 0 33 -2 35 -35 38 -20 2 -39 0 -43 -4z"></path>
<path d="M5305 1008 c-3 -8 -4 -103 -3 -213 l3 -200 45 0 45 0 3 115 c2 106 -6 155 -24 137 -4 -3 -8 -51 -8 -105 -2 -97 -9 -128 -27 -117 -12 8 -12 352 0 359 18 12 42 -7 76 -62 37 -60 45 -82 20 -62 -10 8 -19 9 -24 4 -5 -5 28 -65 76 -139 l84 -130 47 0 47 0 0 210 0 210 -45 0 -45 0 -3 -127 c-1 -71 -6 -128 -10 -128 -4 0 -43 58 -87 128 l-80 127 -43 3 c-28 2 -44 -1 -47 -10z m325 -208 c0 -110 -4 -171 -11 -175 -15 -10 -52 28 -84 86 -24 45 -25 49 -7 38 16 -10 26 -10 46 -1 26 11 26 4 26 115 0 57 3 107 6 110 19 18 24 -20 24 -173z"></path>
<path d="M5705 1010 c-3 -5 23 -58 57 -117 l63 -108 5 -95 5 -95 45 0 45 0 5 95 5 95 63 103 c34 57 62 110 62 119 0 11 -10 13 -42 11 -42 -3 -44 -5 -86 -78 -23 -41 -45 -76 -50 -77 -4 -2 -26 33 -50 77 -42 79 -43 80 -82 80 -21 0 -42 -4 -45 -10z m111 -106 c39 -69 56 -84 83 -67 13 9 72 97 84 128 2 6 8 7 12 3 4 -4 -14 -44 -41 -90 -44 -76 -49 -90 -54 -166 -3 -45 -9 -82 -15 -82 -5 0 -13 33 -16 74 -6 64 -13 87 -55 163 -60 108 -58 103 -45 103 5 0 27 -30 47 -66z"></path>
<path d="M3742 988 c-6 -6 -12 -25 -12 -40 0 -21 -6 -31 -25 -38 -14 -5 -25 -16 -25 -25 0 -8 11 -22 25 -31 24 -16 25 -21 25 -116 0 -97 1 -100 29 -129 20 -19 40 -29 60 -29 46 0 81 17 81 39 0 24 -17 36 -50 36 -25 0 -25 0 -25 95 l0 95 30 5 c24 4 30 10 30 30 0 20 -6 26 -30 30 -26 4 -31 10 -35 45 -4 36 -8 40 -35 43 -17 2 -36 -3 -43 -10z m60 -75 c15 -32 15 -39 2 -57 -17 -25 -20 -177 -3 -208 16 -29 0 -37 -22 -9 -16 19 -19 39 -19 112 0 54 -5 97 -12 109 -10 16 -10 24 0 40 6 11 12 27 12 35 0 28 25 15 42 -22z"></path>
<path d="M4782 988 c-6 -6 -12 -26 -12 -43 0 -22 -6 -33 -22 -40 -29 -13 -29 -37 -1 -50 20 -8 22 -17 25 -118 3 -105 4 -110 31 -133 30 -26 69 -30 112 -14 21 8 26 16 23 38 -2 23 -7 27 -29 24 -41 -4 -50 17 -47 109 l3 84 30 5 c24 4 30 10 30 30 0 20 -6 26 -30 30 -26 4 -31 10 -35 45 -4 36 -8 40 -35 43 -17 2 -36 -3 -43 -10z m60 -75 c15 -32 15 -39 2 -57 -17 -25 -19 -163 -2 -201 13 -29 5 -43 -16 -26 -10 8 -15 42 -18 115 -2 62 -8 109 -16 118 -10 12 -9 22 3 52 8 20 19 36 23 36 4 -1 15 -17 24 -37z"></path>
<path d="M4185 911 c-40 -10 -66 -25 -89 -50 -25 -27 -26 -100 -2 -135 16 -25 16 -27 -6 -57 -22 -29 -22 -31 -5 -60 16 -29 16 -31 -5 -60 -18 -23 -20 -34 -12 -57 28 -82 250 -83 308 -1 23 34 20 83 -8 116 -23 26 -30 28 -123 33 -78 4 -98 8 -98 20 0 12 17 16 77 20 113 7 165 53 152 133 -5 30 -2 41 13 52 25 19 5 51 -28 47 -46 -6 -74 -6 -109 0 -19 3 -48 3 -65 -1z m153 -94 c3 -43 -9 -77 -27 -77 -3 0 -6 21 -6 48 -1 26 -5 55 -9 65 -7 16 -5 18 15 15 21 -3 24 -9 27 -51z m-188 24 c-14 -28 -12 -74 5 -97 19 -24 19 -34 0 -34 -18 0 -45 51 -45 86 0 27 24 64 42 64 5 0 4 -9 -2 -19z m120 -11 c24 -24 25 -38 4 -68 -17 -25 -71 -31 -92 -10 -18 18 -15 75 6 87 27 16 60 13 82 -9z m-120 -215 c7 -9 10 -18 7 -21 -10 -11 -37 5 -37 21 0 19 14 19 30 0z m195 -39 c12 -18 13 -30 6 -50 -14 -34 -28 -33 -28 2 0 15 -4 37 -8 50 -10 30 10 29 30 -2z m-48 -22 c16 -41 -50 -74 -115 -58 -39 10 -52 34 -32 59 18 22 138 21 147 -1z"></path>
<path d="M3565 898 c-3 -8 -4 -79 -3 -158 l3 -145 40 0 40 0 0 155 0 155 -38 3 c-24 2 -39 -1 -42 -10z m55 -154 c0 -95 -3 -114 -15 -114 -12 0 -15 19 -15 113 0 63 3 117 6 120 18 17 24 -14 24 -119z"></path>
<path d="M3935 898 c-3 -8 -4 -79 -3 -158 l3 -145 40 0 40 0 0 155 0 155 -38 3 c-24 2 -39 -1 -42 -10z m55 -154 c0 -95 -3 -114 -15 -114 -12 0 -15 19 -15 113 0 63 3 117 6 120 18 17 24 -14 24 -119z"></path>
<path d="M4463 895 c-37 -16 -39 -23 -19 -50 13 -18 18 -18 48 -7 67 24 108 11 108 -34 0 -20 -6 -22 -65 -26 -84 -5 -115 -31 -115 -95 0 -79 67 -120 148 -91 40 15 46 15 72 0 49 -28 106 14 65 48 -11 10 -15 36 -15 112 0 97 -1 100 -29 129 -27 26 -35 29 -98 29 -37 -1 -83 -7 -100 -15z m181 -47 c12 -19 22 -152 17 -221 -1 -4 -9 -4 -18 2 -19 10 -26 66 -21 174 1 17 -2 40 -6 50 -12 25 11 21 28 -5z m-49 -158 c0 -34 -1 -35 -40 -35 -34 0 -40 3 -43 23 -5 33 16 54 52 50 28 -3 31 -6 31 -38z m-115 4 c0 -14 5 -34 11 -46 9 -17 8 -19 -7 -16 -21 4 -40 48 -31 72 10 25 27 19 27 -10z"></path>
<path d="M5010 872 c-90 -90 -52 -266 63 -287 87 -17 177 19 162 64 -6 19 -12 22 -33 16 -76 -19 -106 -17 -131 9 -16 17 -21 30 -15 36 5 5 50 10 99 12 l90 3 3 45 c3 54 -22 109 -58 127 -14 7 -51 13 -84 13 -54 0 -61 -3 -96 -38z m196 -48 c17 -42 15 -69 -6 -69 -10 0 -15 11 -16 35 0 19 -4 43 -8 53 -5 11 -4 17 3 17 7 0 19 -16 27 -36z m-62 7 c31 -34 17 -56 -37 -59 -55 -4 -69 13 -43 53 20 30 56 33 80 6z m-115 -33 c0 -18 1 -52 1 -76 0 -24 4 -52 10 -62 16 -29 -6 -25 -25 4 -23 34 -29 88 -15 130 14 45 27 46 29 4z"></path>
<path d="M1524 680 c-28 -11 -54 -48 -54 -78 0 -32 41 -69 84 -77 67 -13 75 -62 7 -52 -20 3 -46 9 -57 12 -15 5 -23 1 -28 -11 -11 -30 19 -48 86 -52 53 -3 67 -1 91 18 21 17 27 30 27 59 0 46 -20 67 -81 84 -33 10 -44 18 -44 32 0 20 15 23 75 14 20 -3 26 1 28 18 3 17 -3 26 -23 33 -31 12 -82 12 -111 0z"></path>
<path d="M1693 673 c-11 -27 6 -44 39 -41 l33 3 5 -105 5 -105 30 0 30 0 5 105 5 105 26 -3 c31 -4 58 23 41 40 -16 16 -213 17 -219 1z"></path>
<path d="M1992 678 c-19 -24 -103 -239 -97 -248 12 -19 53 -10 69 15 14 21 24 25 61 25 39 0 47 -3 55 -25 7 -19 17 -25 38 -25 16 0 31 3 34 6 9 9 -89 237 -108 251 -22 16 -39 16 -52 1z m52 -69 c-7 -12 -31 -11 -39 1 -4 6 -1 18 6 26 12 14 14 14 26 -2 7 -9 10 -21 7 -25z m-6 -53 c12 -27 7 -36 -20 -36 -20 0 -21 4 -12 38 8 28 18 28 32 -2z m-58 -44 c0 -13 -12 -22 -22 -16 -10 6 -1 24 13 24 5 0 9 -4 9 -8z m110 -2 c0 -5 -4 -10 -10 -10 -5 0 -10 5 -10 10 0 6 5 10 10 10 6 0 10 -4 10 -10z"></path>
<path d="M2133 673 c-10 -27 6 -43 39 -41 l33 3 1 -105 1 -105 31 -3 31 -3 3 108 3 108 35 0 c30 0 35 3 35 24 0 23 -1 24 -104 25 -74 1 -105 -3 -108 -11z"></path>
<path d="M2384 676 c-3 -7 -3 -66 -2 -132 l3 -119 80 0 c73 0 80 2 80 20 0 16 -8 21 -45 25 -42 5 -45 7 -45 35 0 26 4 30 27 30 34 1 53 18 44 40 -4 12 -15 16 -38 13 -29 -3 -33 0 -33 22 0 23 4 25 45 25 41 0 45 2 45 25 0 24 -2 25 -78 26 -53 1 -80 -2 -83 -10z m51 -126 c-5 -8 -11 -8 -17 -2 -6 6 -7 16 -3 22 5 8 11 8 17 2 6 -6 7 -16 3 -22z"></path>
<path d="M1930 79 c0 -10 30 -20 41 -13 18 11 9 24 -16 22 -14 -1 -25 -5 -25 -9z"></path>
</g>
</svg>